# xmcd
#
# Track frame offsets:
#	150
#	21253
#	41095
#	63109
#	86862
#	105979
#	126387
#	149978
#	169650
#	192456
#	210567
#	236064
#	260527
#	280786
#
# Disc length: 4056 seconds
#
# Revision: 1
# Processed by: cddbd v1.5.2PL0 Copyright (c) Steve Scherf et al.
# Submitted via: EZCDAudioConverter 8.0.2.1
#
DISCID=d50fd60e
DTITLE=Various Artist - Minh Vy Show 2008. Ngày Mai Xa Cách
DYEAR=2009
DGENRE=World Pop
TTITLE0=Cẩm Ly - Mẹ tôi rước dâu
TTITLE1=Đàm Vĩnh Hưng - Ngày đó tôi yêu em
TTITLE2=Thanh Thảo - Chuyện thần tiên
TTITLE3=Đan Trường - Đợi chờ mình ên
TTITLE4=Mắt Ngọc - Mùa nắng xuân về
TTITLE5=Minh Thuận - Cho trọn giấc mơ
TTITLE6=Cẩm Ly, Quốc Đại - Ngày không em
TTITLE7=Phương Thanh - Tình cuối chân mây
TTITLE8=Hoài Linh - Con heo vàng
TTITLE9=Cẩm Ly, Nguyên Lộc - Ban mai ngày xanh
TTITLE10=Quang Linh - Người phương xa
TTITLE11=Phi Nhung - Anh về miền tây
TTITLE12=Lý Hải - Làm sao anh biết
TTITLE13=Đan Trường - Cẩm Ly - Ngày Mai Xa Cách
EXTD=
EXTT0=
EXTT1=
EXTT2=
EXTT3=
EXTT4=
EXTT5=
EXTT6=
EXTT7=
EXTT8=
EXTT9=
EXTT10=
EXTT11=
EXTT12=
EXTT13=
PLAYORDER=
